# Blender 3.5.1
# www.blender.org
mtllib Cube_1411.mtl
o Cube.1411
v -9.616995 -1.516351 4.873610
v -9.616995 0.990503 4.873610
v -9.616995 -1.516351 1.403120
v -9.616995 0.990503 1.403120
v 4.828676 -1.516351 4.873610
v 4.828676 0.990503 4.873610
v 4.828676 -1.516351 1.403120
v 4.828676 0.990503 1.403120
vn -1.0000 -0.0000 -0.0000
vn -0.0000 -0.0000 -1.0000
vn 1.0000 -0.0000 -0.0000
vn -0.0000 -0.0000 1.0000
vn -0.0000 -1.0000 -0.0000
vn -0.0000 1.0000 -0.0000
vt 0.327542 0.005792
vt 0.339125 0.339125
vt 0.005792 0.994209
vt 0.327542 0.327542
vt 0.339125 0.660875
vt 0.994209 0.327542
vt 0.005792 0.005792
vt 0.327542 0.339125
vt 0.005792 0.672458
vt 0.005792 0.327542
vt 0.327542 0.660875
vt 0.994209 0.005792
vt 0.339125 0.005792
vt 0.660875 0.339125
vt 0.327542 0.994209
vt 0.339125 0.327542
vt 0.660875 0.660875
vt 0.672458 0.327542
vt 0.005792 0.339125
vt 0.660875 0.005792
vt 0.327542 0.672458
vt 0.005792 0.660875
vt 0.660875 0.327542
vt 0.672458 0.005792
s 0
usemtl Cube.1411_BAKED
f 2/4/1 4/10/1 3/7/1 1/1/1
f 4/11/2 8/22/2 7/19/2 3/8/2
f 8/23/3 6/16/3 5/13/3 7/20/3
f 6/17/4 2/5/4 1/2/4 5/14/4
f 1/3/5 3/9/5 7/21/5 5/15/5
f 6/18/6 8/24/6 4/12/6 2/6/6
